<svg xmlns="http://www.w3.org/2000/svg" xmlns:xlink="http://www.w3.org/1999/xlink" width="205" height="70" viewBox="0 0 205 70">
    <defs>
        <path id="a" d="M.026.12h8.41v11.991H.027z"/>
        <path id="c" d="M0 .602h12.475v8.355H0z"/>
        <path id="e" d="M.197.481h13.887v24.03H.197z"/>
    </defs>
    <g fill="none" fill-rule="evenodd">
        <path fill="#00A6CE" d="M38.813 9.608c0 .49-.207 1.461-.423 1.833-.806 1.507-2.893 3.096-3.759 6.49-1.021-3.246-3.159-5.082-3.776-6.525-.238-.41-.406-1.308-.406-1.798a4.18 4.18 0 0 1 4.61-4.155 4.175 4.175 0 0 1 2.232.933 4.167 4.167 0 0 1 1.522 3.222M54.457 14.5a4.16 4.16 0 0 0-1.417-2.442 4.185 4.185 0 0 0-5.893.495c-.316.375-.767 1.169-.851 1.635-.46 1.502-.016 4.28-1.332 7.418 2.855-2.035 5.474-1.903 7.065-2.535.405-.146 1.191-.753 1.508-1.128a4.163 4.163 0 0 0 .92-3.442M9.026 45.41a4.153 4.153 0 0 0 .478 2.782 4.187 4.187 0 0 0 5.702 1.576c.426-.24 1.126-.83 1.366-1.238.954-1.248 1.5-4.01 3.825-6.497-3.385.92-5.796-.11-7.507-.07-.432-.003-1.379.295-1.807.536a4.17 4.17 0 0 0-2.057 2.91M58.169 42.5c-.426-.242-1.374-.54-1.805-.536-1.711-.043-4.123.989-7.506.07 2.324 2.486 2.87 5.247 3.823 6.496.24.408.94.996 1.368 1.238a4.185 4.185 0 0 0 5.89-1.959 4.169 4.169 0 0 0-1.77-5.31M15.62 17.943c.318.375 1.102.982 1.508 1.128 1.59.632 4.21.5 7.065 2.535-1.317-3.138-.87-5.918-1.33-7.418-.085-.467-.536-1.26-.853-1.635a4.185 4.185 0 0 0-6.206-.203 4.14 4.14 0 0 0-1.102 2.15 4.16 4.16 0 0 0 .919 3.443M22.43 59.2a4.149 4.149 0 0 0 2.168 1.81 4.184 4.184 0 0 0 5.367-2.482c.17-.46.32-1.36.239-1.827-.082-1.569-1.454-4.027-1.293-7.426-1.985 2.89-4.492 3.662-5.769 4.8-.33.275-.86 1.115-1.03 1.575a4.164 4.164 0 0 0 .318 3.55M47.001 55.65c-.169-.46-.698-1.3-1.03-1.575-1.275-1.137-3.782-1.91-5.767-4.8.162 3.4-1.212 5.858-1.294 7.426-.08.467.071 1.367.24 1.827a4.183 4.183 0 0 0 7.534.671 4.164 4.164 0 0 0 .317-3.549M9.936 34.08c.485.075 1.477.017 1.878-.14 1.614-.567 3.502-2.387 6.993-2.727-3.058-1.5-4.552-3.887-5.888-4.716-.37-.296-1.232-.599-1.717-.673a4.181 4.181 0 0 0-4.81 3.922 4.176 4.176 0 0 0 3.544 4.335M62.277 32.09a4.146 4.146 0 0 0 .541-2.77 4.18 4.18 0 0 0-4.766-3.495c-.485.073-1.348.376-1.717.672-1.336.829-2.83 3.216-5.888 4.716 3.49.341 5.378 2.16 6.992 2.727.402.157 1.393.215 1.879.14a4.17 4.17 0 0 0 2.96-1.99"/>
        <path fill="#203D7C" d="M37.638 23.884c0-.352-.15-1.05-.304-1.317-.58-1.084-2.08-2.226-2.703-4.666-.734 2.334-2.27 3.653-2.715 4.692-.17.294-.291.94-.291 1.291a3.005 3.005 0 0 0 4.918 2.318 2.996 2.996 0 0 0 1.095-2.318M43.414 28.092c.226-.27.565-.898.618-1.203.259-1.2-.15-3.04.951-5.305-2.068 1.31-4.094 1.327-5.105 1.834-.32.115-.83.53-1.058.8a3 3 0 0 0 .601 4.417 2.992 2.992 0 0 0 1.66.522 3.003 3.003 0 0 0 2.333-1.065M24.104 36.487c-.307.173-.842.647-1 .913-.656 1.038-.913 2.904-2.733 4.648 2.395-.511 4.302.173 5.426.048.34.002.962-.21 1.27-.383a3 3 0 0 0-.405-5.417 3.004 3.004 0 0 0-2.558.19M42.592 36.296a2.992 2.992 0 0 0-1.54 1.323 3.002 3.002 0 0 0 1.134 4.093c.308.174.93.386 1.27.383 1.124.125 3.031-.56 5.426-.047-1.82-1.745-2.074-3.61-2.733-4.646-.157-.268-.692-.742-1-.916a3.005 3.005 0 0 0-2.557-.19M28.077 29.157a2.996 2.996 0 0 0 1.904-.71 2.998 2.998 0 0 0 .356-4.23c-.227-.27-.736-.684-1.057-.8-1.01-.506-3.036-.525-5.106-1.833 1.102 2.265.693 4.104.95 5.305.056.305.392.934.62 1.203a3.002 3.002 0 0 0 2.333 1.065M28.142 42.652c-.124.33-.223 1.038-.17 1.341.17 1.218 1.184 2.805.928 5.31 1.494-1.937 3.392-2.648 4.167-3.47.263-.218.599-.782.72-1.112a3.001 3.001 0 0 0-2.081-3.945 2.995 2.995 0 0 0-1.738.077 2.997 2.997 0 0 0-1.826 1.799M39.147 40.853a2.999 2.999 0 0 0-2.033.014 3.004 3.004 0 0 0-1.787 3.854c.123.33.46.894.72 1.112.775.822 2.674 1.532 4.166 3.47-.255-2.505.76-4.092.93-5.31.052-.303-.048-1.01-.17-1.341a3 3 0 0 0-1.826-1.799M26.704 34.352a2.987 2.987 0 0 0 .968-1.784 3.003 3.003 0 0 0-2.517-3.423c-.348-.053-1.005-.03-1.323.092-1.096.283-2.634 1.6-5.055 1.97 2.322.985 3.224 2.638 4.21 3.374.241.194.91.447 1.258.5a3 3 0 0 0 2.459-.729M45.009 35.082c.349-.054 1.016-.307 1.258-.5.986-.737 1.887-2.39 4.21-3.374-2.422-.373-3.96-1.69-5.055-1.97-.318-.123-.975-.146-1.323-.093a3.003 3.003 0 1 0 .91 5.937"/>
        <path fill="#81BD41" d="M38.813 65.506c0-.49-.207-1.46-.423-1.833-.806-1.507-2.893-3.095-3.759-6.49-1.021 3.246-3.159 5.082-3.776 6.525-.238.41-.406 1.309-.406 1.798a4.18 4.18 0 0 0 4.61 4.155 4.175 4.175 0 0 0 2.232-.932 4.167 4.167 0 0 0 1.522-3.223M17.235 60.928c.317-.373.787-1.248.863-1.672.36-1.67-.205-4.229 1.331-7.378-2.88 1.817-5.698 1.84-7.105 2.543-.446.16-1.155.735-1.472 1.108a4.173 4.173 0 0 0 .83 6.147c.699.479 1.502.719 2.306.73a4.174 4.174 0 0 0 3.247-1.478M55.011 62.405a4.18 4.18 0 0 0 2.648-.989 4.173 4.173 0 0 0 .487-5.887c-.316-.373-1.024-.949-1.47-1.108-1.407-.703-4.225-.726-7.107-2.543 1.537 3.15.971 5.708 1.331 7.378.077.424.547 1.299.864 1.672a4.176 4.176 0 0 0 3.247 1.477M5.82 14.68a4.166 4.166 0 0 0-2.117 1.872 4.173 4.173 0 0 0 1.658 5.67c.431.235 1.3.518 1.774.509 1.565.151 4.204-.837 7.545-.174-2.565-2.39-2.957-4.98-3.893-6.41-.223-.368-.976-1.015-1.406-1.252a4.184 4.184 0 0 0-3.562-.215"/>
        <g>
            <path fill="#81BD41" d="M60.747 14.643c-.433.235-1.19.885-1.413 1.253-.941 1.432-1.336 4.026-3.913 6.419 3.358-.665 6.01.324 7.581.171.477.012 1.35-.272 1.782-.507a4.174 4.174 0 0 0-.46-7.552 4.205 4.205 0 0 0-3.577.216"/>
            <g transform="translate(41.613)">
                <mask id="b" fill="#fff">
                    <use xlink:href="#a"/>
                </mask>
                <path fill="#81BD41" d="M7.872 2.212A4.18 4.18 0 0 0 5.705.386C3.53-.422 1.109.677.297 2.84.124 3.3-.032 4.2.047 4.67c.072 1.57 1.438 4.04 1.257 7.442 2.01-2.882 4.533-3.64 5.823-4.773.333-.273.869-1.11 1.042-1.57a4.153 4.153 0 0 0-.297-3.556" mask="url(#b)"/>
            </g>
            <path fill="#81BD41" d="M19.908 5.767c.172.46.71 1.297 1.044 1.572 1.289 1.131 3.812 1.89 5.821 4.771-.18-3.402 1.184-5.872 1.258-7.442.077-.468-.079-1.368-.251-1.827a4.209 4.209 0 0 0-7.575-.63 4.158 4.158 0 0 0-.297 3.556"/>
            <g transform="translate(0 34.318)">
                <mask id="d" fill="#fff">
                    <use xlink:href="#c"/>
                </mask>
                <path fill="#81BD41" d="M4.849 8.907c.487-.076 1.42-.431 1.757-.7C7.98 7.176 9.235 4.87 12.475 3.49 9.09 2.983 6.935 1.154 5.405.766c-.443-.171-1.362-.2-1.85-.124C1.263.998-.307 3.136.05 5.418A4.174 4.174 0 0 0 1.41 7.9 4.206 4.206 0 0 0 4.85 8.907" mask="url(#d)"/>
            </g>
        </g>
        <g>
            <path fill="#81BD41" d="M69.014 42.17a4.12 4.12 0 0 0 1.35-2.464c.356-2.265-1.204-4.389-3.486-4.743-.482-.074-1.395-.047-1.837.124-1.521.385-3.665 2.2-7.032 2.706 3.224 1.37 4.473 3.66 5.838 4.681.335.27 1.262.62 1.745.696a4.192 4.192 0 0 0 3.422-1"/>
            <path fill="#0076BC" d="M36.82 48.612a2.995 2.995 0 0 0-1.91-.682 2.995 2.995 0 0 0-3.004 2.986c0 .35.122.99.292 1.284.443 1.032 1.978 2.345 2.712 4.665.622-2.427 2.12-3.561 2.7-4.639.154-.267.304-.96.304-1.31 0-.928-.426-1.757-1.094-2.304M26.529 46.511a2.976 2.976 0 0 0-1.015-1.747 3.016 3.016 0 0 0-4.233.349c-.228.267-.552.834-.614 1.167-.332 1.073-.015 3.06-.962 5.302 2.052-1.452 3.934-1.355 5.075-1.805.292-.105.857-.538 1.084-.805a2.967 2.967 0 0 0 .665-2.46M43.693 48.972c.226.266.792.701 1.084.804 1.143.45 3.025.354 5.077 1.807-.95-2.242-.631-4.23-.964-5.302-.06-.334-.386-.902-.612-1.168a3.016 3.016 0 0 0-4.46-.14 2.974 2.974 0 0 0-.125 3.999M21.645 22.633c-.309-.168-.993-.371-1.302-.364-1.23-.013-2.95.747-5.39.124 1.693 1.755 2.114 3.723 2.812 4.605.177.29.684.703.994.871a3.01 3.01 0 0 0 4.211-1.458 2.976 2.976 0 0 0-1.325-3.778M47.113 24.693a2.957 2.957 0 0 0 .318 1.993 3.013 3.013 0 0 0 4.078 1.184c.308-.169.814-.583.993-.872.696-.882 1.118-2.85 2.812-4.605-2.441.623-4.162-.137-5.39-.124-.31-.007-.995.196-1.304.364a2.983 2.983 0 0 0-1.507 2.06M43.582 18.865c.123-.328.229-1.03.175-1.334-.16-1.21-1.165-2.794-.893-5.284-1.505 1.919-3.404 2.615-4.184 3.427-.263.215-.602.774-.725 1.102a2.98 2.98 0 0 0 2.056 3.934c.589.153 1.192.12 1.737-.067a2.99 2.99 0 0 0 1.834-1.778M27.906 20.643a3.016 3.016 0 0 0 2.03-.026 2.981 2.981 0 0 0 1.762-3.842c-.122-.327-.463-.887-.724-1.102-.78-.813-2.68-1.509-4.184-3.426.27 2.49-.733 4.074-.896 5.284-.05.303.054 1.006.176 1.334a2.995 2.995 0 0 0 1.836 1.778M21.052 38.404a2.972 2.972 0 0 0 .417-1.677 3 3 0 0 0-3.464-2.795c-.349.054-.967.271-1.232.484-.958.596-2.026 2.304-4.22 3.382 2.51.237 3.867 1.534 5.028 1.937.29.112 1 .15 1.349.097a2.996 2.996 0 0 0 2.122-1.428M51.663 39.832c.348.054 1.06.014 1.349-.096 1.161-.403 2.52-1.7 5.028-1.938-2.194-1.078-3.263-2.787-4.22-3.382-.265-.213-.884-.43-1.232-.484a3.002 3.002 0 0 0-3.462 2.794c-.033.605.12 1.185.415 1.678a3 3 0 0 0 2.122 1.428"/>
            <path fill="#203D7C" d="M85.058 66.882c-1.938 1.991-4.245 2.734-6.825 2.734-2.65 0-4.824-.946-6.52-2.633-2.445-2.43-2.379-5.433-2.379-9.584 0-4.153-.066-7.156 2.379-9.586 1.696-1.688 3.803-2.633 6.52-2.633 5.603 0 8.454 3.645 9.1 7.696h-4.755c-.544-2.262-1.934-3.511-4.345-3.511-1.291 0-2.344.506-3.022 1.283-.917 1.012-1.156 2.127-1.156 6.75s.239 5.771 1.156 6.783c.678.777 1.73 1.25 3.022 1.25 1.426 0 2.58-.507 3.36-1.35.781-.877 1.086-1.958 1.086-3.206v-.912h-4.446v-3.916h9.133v3.512c0 3.475-.61 5.568-2.308 7.323M100.612 69.413h-3.53l-7.98-24.03h4.888l4.858 15.66 4.854-15.66h4.926z"/>
            <path fill="#00A6CE" d="M126.729 69.413V58.917h-9.814v10.496h-3.666v-24.03h3.666v10.26h9.814v-10.26h3.667v24.03zM144.764 57.128c-.545-1.283-1.765-2.16-3.396-2.16-1.629 0-2.887.877-3.43 2.16-.34.776-.406 1.282-.44 2.33h7.741c-.034-1.048-.136-1.554-.475-2.33zm-7.266 4.725c0 2.937 1.562 4.792 4.381 4.792 1.933 0 2.952-.54 4.176-1.754l2.207 2.058c-1.766 1.755-3.43 2.667-6.451 2.667-4.313 0-7.745-2.261-7.745-8.776 0-5.534 2.888-8.741 7.302-8.741 4.618 0 7.3 3.375 7.3 8.235v1.52h-11.17zM161.78 61.854h-4.043c-2.037 0-3.088.91-3.088 2.463s.984 2.43 3.157 2.43c1.325 0 2.308-.101 3.226-.978.51-.508.748-1.317.748-2.532v-1.383zm.067 7.559V67.86c-1.257 1.249-2.445 1.755-4.584 1.755-2.14 0-3.567-.506-4.619-1.552-.883-.912-1.358-2.228-1.358-3.68 0-2.868 2.003-4.926 5.943-4.926h4.55v-1.216c0-2.16-1.087-3.206-3.768-3.206-1.904 0-2.818.437-3.77 1.653l-2.277-2.125c1.63-1.891 3.33-2.465 6.181-2.465 4.72 0 7.098 1.991 7.098 5.872v11.442h-3.396zM174.516 69.413c-3.261 0-4.72-2.194-4.72-4.725V45.383h3.464v19.102c0 1.317.475 1.991 1.866 1.991h1.53v2.937h-2.14zM184.908 69.413c-3.226 0-4.718-2.295-4.718-4.759v-9.416h-1.972v-2.633h1.972v-5.197h3.463v5.197h3.327v2.633h-3.327v9.247c0 1.25.61 1.991 1.9 1.991h1.427v2.937h-2.072z"/>
            <g transform="translate(190.52 44.902)">
                <mask id="f" fill="#fff">
                    <use xlink:href="#e"/>
                </mask>
                <path fill="#00A6CE" d="M10.622 24.511V14.015c0-2.599-1.529-3.746-3.464-3.746-1.936 0-3.498 1.18-3.498 3.746v10.496H.197V.481H3.66v8.64C4.849 7.84 6.41 7.197 8.108 7.197c3.837 0 5.977 2.565 5.977 6.278V24.51h-3.463z" mask="url(#f)"/>
            </g>
        </g>
    </g>
</svg>
