<?xml version="1.0" encoding="utf-8"?>
<!-- Generator: Adobe Illustrator 16.0.0, SVG Export Plug-In . SVG Version: 6.00 Build 0)  -->
<!DOCTYPE svg PUBLIC "-//W3C//DTD SVG 1.1//EN" "http://www.w3.org/Graphics/SVG/1.1/DTD/svg11.dtd">
<svg version="1.1" id="Layer_1" xmlns="http://www.w3.org/2000/svg" xmlns:xlink="http://www.w3.org/1999/xlink" x="0px" y="0px"
	 width="205px" height="70px" viewBox="0 0 205 70" enable-background="new 0 0 205 70" xml:space="preserve">
<g>
	<path fill="#FFFFFF" d="M38.813,9.608c0,0.49-0.207,1.461-0.423,1.833c-0.806,1.507-2.893,3.096-3.759,6.49
		c-1.021-3.246-3.159-5.082-3.776-6.525c-0.238-0.41-0.406-1.308-0.406-1.798c0.001-2.309,1.874-4.179,4.183-4.177
		c0.143,0,0.285,0.008,0.427,0.022c0.82,0.084,1.596,0.408,2.232,0.933C38.255,7.178,38.813,8.36,38.813,9.608 M54.457,14.5
		c-0.173-0.954-0.674-1.818-1.417-2.442c-1.765-1.489-4.401-1.267-5.893,0.495c-0.316,0.375-0.767,1.169-0.851,1.635
		c-0.46,1.502-0.016,4.28-1.332,7.418c2.855-2.035,5.474-1.903,7.065-2.535c0.405-0.146,1.191-0.753,1.508-1.128
		C54.344,16.992,54.682,15.728,54.457,14.5 M9.026,45.41c-0.17,0.955-0.001,1.939,0.478,2.781c1.141,2.009,3.692,2.714,5.702,1.576
		c0.426-0.24,1.126-0.83,1.366-1.237c0.954-1.248,1.5-4.011,3.825-6.497c-3.385,0.92-5.796-0.11-7.507-0.07
		c-0.432-0.003-1.379,0.295-1.807,0.536C9.997,43.112,9.242,44.18,9.026,45.41 M58.169,42.5c-0.426-0.242-1.374-0.54-1.805-0.536
		c-1.711-0.043-4.123,0.989-7.506,0.07c2.324,2.485,2.87,5.247,3.823,6.496c0.24,0.407,0.94,0.995,1.368,1.237
		c2.012,1.138,4.565,0.428,5.703-1.584c0.069-0.121,0.131-0.246,0.188-0.375C60.801,45.848,60.036,43.551,58.169,42.5 M15.62,17.943
		c0.318,0.375,1.102,0.982,1.508,1.128c1.59,0.632,4.21,0.5,7.065,2.535c-1.317-3.138-0.87-5.918-1.33-7.418
		c-0.085-0.467-0.536-1.26-0.853-1.635c-1.493-1.764-4.133-1.984-5.898-0.491c-0.107,0.091-0.21,0.187-0.308,0.289
		c-0.573,0.591-0.957,1.339-1.102,2.15C14.477,15.728,14.814,16.991,15.62,17.943 M22.43,59.2c0.489,0.838,1.256,1.479,2.168,1.81
		c2.167,0.795,4.569-0.315,5.367-2.482c0.17-0.459,0.32-1.359,0.239-1.826c-0.082-1.569-1.454-4.027-1.293-7.426
		c-1.985,2.89-4.492,3.662-5.769,4.8c-0.33,0.274-0.86,1.114-1.03,1.575C21.681,56.821,21.797,58.124,22.43,59.2 M47.001,55.65
		c-0.169-0.461-0.698-1.301-1.03-1.575c-1.275-1.138-3.782-1.91-5.767-4.8c0.162,3.399-1.212,5.857-1.294,7.426
		c-0.08,0.467,0.071,1.367,0.24,1.826c0.798,2.169,3.203,3.279,5.371,2.481c0.909-0.335,1.673-0.974,2.164-1.81
		C47.316,58.123,47.433,56.82,47.001,55.65 M9.936,34.08c0.485,0.075,1.477,0.017,1.878-0.14c1.614-0.567,3.502-2.387,6.993-2.727
		c-3.058-1.5-4.552-3.887-5.888-4.716c-0.37-0.296-1.232-0.599-1.717-0.673c-2.283-0.351-4.417,1.216-4.767,3.498
		c-0.021,0.141-0.036,0.282-0.043,0.424C6.286,31.886,7.817,33.759,9.936,34.08 M62.277,32.09c0.499-0.832,0.69-1.812,0.541-2.77
		c-0.351-2.281-2.485-3.845-4.766-3.495c-0.485,0.073-1.348,0.376-1.717,0.672c-1.336,0.829-2.83,3.216-5.888,4.716
		c3.49,0.341,5.378,2.16,6.992,2.727c0.402,0.157,1.393,0.215,1.879,0.14C60.553,33.894,61.639,33.163,62.277,32.09"/>
	<path fill="#FFFFFF" d="M37.638,23.884c0-0.352-0.15-1.05-0.304-1.317c-0.58-1.084-2.08-2.226-2.703-4.666
		c-0.734,2.334-2.27,3.653-2.715,4.692c-0.17,0.294-0.291,0.94-0.291,1.291c0,1.66,1.345,3.005,3.004,3.006
		c0.698,0,1.375-0.243,1.914-0.688C37.237,25.632,37.639,24.782,37.638,23.884 M43.414,28.092c0.226-0.27,0.565-0.898,0.618-1.203
		c0.259-1.2-0.15-3.04,0.951-5.305c-2.068,1.31-4.094,1.327-5.105,1.834c-0.32,0.115-0.83,0.53-1.058,0.8
		c-1.07,1.265-0.912,3.158,0.353,4.228c0.08,0.067,0.163,0.13,0.249,0.189c0.489,0.335,1.067,0.517,1.66,0.522
		C41.979,29.168,42.834,28.778,43.414,28.092 M24.104,36.486c-0.307,0.174-0.842,0.647-1,0.914
		c-0.656,1.037-0.913,2.904-2.733,4.647c2.395-0.511,4.302,0.173,5.426,0.048c0.34,0.002,0.962-0.21,1.27-0.383
		c1.443-0.813,1.954-2.643,1.141-4.086c-0.344-0.611-0.891-1.082-1.545-1.331C25.824,35.974,24.885,36.043,24.104,36.486
		 M42.592,36.296c-0.652,0.248-1.196,0.716-1.54,1.323c-0.817,1.442-0.311,3.274,1.132,4.092c0,0,0.001,0,0.002,0.001
		c0.308,0.174,0.93,0.386,1.27,0.383c1.124,0.125,3.031-0.56,5.426-0.047c-1.82-1.745-2.074-3.61-2.733-4.646
		c-0.157-0.269-0.692-0.742-1-0.916C44.368,36.044,43.43,35.975,42.592,36.296 M28.077,29.157c0.698-0.008,1.371-0.259,1.904-0.71
		c1.266-1.067,1.428-2.958,0.361-4.225c-0.001-0.002-0.003-0.004-0.005-0.006c-0.227-0.27-0.736-0.684-1.057-0.8
		c-1.01-0.506-3.036-0.525-5.106-1.833c1.102,2.265,0.693,4.104,0.95,5.305c0.056,0.305,0.392,0.934,0.62,1.203
		C26.323,28.778,27.179,29.169,28.077,29.157 M28.142,42.652c-0.124,0.33-0.223,1.037-0.17,1.341c0.17,1.218,1.184,2.805,0.928,5.31
		c1.494-1.937,3.392-2.647,4.167-3.47c0.263-0.218,0.599-0.782,0.72-1.112c0.572-1.555-0.226-3.28-1.781-3.852
		c-0.098-0.037-0.198-0.067-0.3-0.094c-0.574-0.146-1.179-0.119-1.738,0.078C29.121,41.148,28.451,41.809,28.142,42.652
		 M39.147,40.854c-0.659-0.232-1.377-0.228-2.033,0.014c-1.558,0.57-2.357,2.296-1.787,3.854c0.123,0.33,0.46,0.895,0.72,1.112
		c0.775,0.822,2.674,1.532,4.166,3.47c-0.255-2.505,0.76-4.092,0.93-5.31c0.052-0.304-0.048-1.011-0.17-1.341
		C40.664,41.81,39.994,41.149,39.147,40.854 M26.704,34.352c0.521-0.463,0.863-1.095,0.968-1.784
		c0.251-1.639-0.875-3.171-2.514-3.422c-0.001,0-0.002,0-0.003,0c-0.348-0.053-1.005-0.03-1.323,0.092
		c-1.096,0.283-2.634,1.6-5.055,1.97c2.322,0.985,3.224,2.638,4.21,3.374c0.241,0.194,0.91,0.447,1.258,0.5
		C25.132,35.218,26.035,34.951,26.704,34.352 M45.009,35.082c0.349-0.054,1.016-0.307,1.258-0.5c0.986-0.737,1.887-2.39,4.21-3.374
		c-2.422-0.373-3.96-1.69-5.055-1.97c-0.318-0.123-0.975-0.146-1.323-0.093c-1.64,0.251-2.765,1.784-2.514,3.423
		C41.837,34.208,43.37,35.333,45.009,35.082L45.009,35.082"/>
	<path fill="#FFFFFF" d="M38.813,65.506c0-0.49-0.207-1.46-0.423-1.833c-0.806-1.507-2.893-3.095-3.759-6.489
		c-1.021,3.246-3.159,5.082-3.776,6.524c-0.238,0.41-0.406,1.31-0.406,1.798c0.001,2.309,1.874,4.179,4.183,4.178
		c0.143,0,0.285-0.008,0.427-0.022c0.82-0.084,1.596-0.408,2.232-0.933C38.255,67.937,38.814,66.754,38.813,65.506 M17.235,60.928
		c0.317-0.373,0.787-1.248,0.863-1.672c0.36-1.67-0.205-4.229,1.331-7.378c-2.88,1.817-5.698,1.84-7.105,2.543
		c-0.446,0.16-1.155,0.735-1.472,1.108c-1.491,1.757-1.275,4.391,0.482,5.881c0.111,0.096,0.228,0.184,0.348,0.266
		c0.699,0.479,1.502,0.719,2.306,0.73C15.237,62.424,16.428,61.882,17.235,60.928 M55.011,62.405
		c0.971-0.013,1.907-0.362,2.648-0.989c1.76-1.488,1.98-4.121,0.492-5.881c-0.002-0.002-0.004-0.004-0.005-0.006
		c-0.316-0.373-1.024-0.949-1.47-1.108c-1.407-0.703-4.225-0.726-7.107-2.543c1.537,3.149,0.971,5.708,1.331,7.378
		c0.077,0.424,0.547,1.299,0.864,1.672C52.571,61.881,53.762,62.423,55.011,62.405 M5.82,14.68c-0.902,0.358-1.651,1.02-2.117,1.872
		c-1.109,2.021-0.37,4.558,1.65,5.666c0.002,0.001,0.005,0.003,0.007,0.004c0.431,0.235,1.3,0.518,1.774,0.509
		c1.565,0.151,4.204-0.837,7.545-0.174c-2.565-2.39-2.957-4.98-3.893-6.41c-0.223-0.368-0.976-1.015-1.406-1.252
		C8.285,14.295,6.979,14.216,5.82,14.68"/>
	<g>
		<path fill="#FFFFFF" d="M60.747,14.643c-0.433,0.235-1.19,0.885-1.413,1.253c-0.941,1.432-1.336,4.026-3.913,6.419
			c3.358-0.665,6.01,0.324,7.581,0.171c0.477,0.012,1.35-0.272,1.782-0.507c2.026-1.099,2.777-3.633,1.678-5.659
			c-0.468-0.863-1.225-1.533-2.138-1.893C63.159,13.962,61.848,14.041,60.747,14.643"/>
		<g transform="translate(41.613)">
			<defs>
				<filter id="Adobe_OpacityMaskFilter" filterUnits="userSpaceOnUse" x="0.026" y="0.121" width="8.411" height="11.991">
					<feColorMatrix  type="matrix" values="1 0 0 0 0  0 1 0 0 0  0 0 1 0 0  0 0 0 1 0"/>
				</filter>
			</defs>
			<mask maskUnits="userSpaceOnUse" x="0.026" y="0.121" width="8.411" height="11.991" id="b">
				<g filter="url(#Adobe_OpacityMaskFilter)">
					<path id="a" fill="#FFFFFF" d="M0.026,0.12h8.41v11.991H0.027L0.026,0.12z"/>
				</g>
			</mask>
			<path mask="url(#b)" fill="#FFFFFF" d="M7.872,2.212C7.384,1.37,6.618,0.724,5.705,0.386C3.53-0.422,1.109,0.677,0.297,2.84
				C0.124,3.3-0.032,4.2,0.047,4.67c0.072,1.57,1.438,4.04,1.257,7.442c2.01-2.882,4.533-3.64,5.823-4.773
				c0.333-0.273,0.869-1.11,1.042-1.57C8.61,4.6,8.501,3.293,7.872,2.212"/>
		</g>
		<path fill="#FFFFFF" d="M19.908,5.767c0.172,0.46,0.71,1.297,1.044,1.572c1.289,1.131,3.812,1.89,5.821,4.771
			c-0.18-3.402,1.184-5.872,1.258-7.442C28.108,4.2,27.952,3.3,27.78,2.841c-0.821-2.174-3.25-3.271-5.425-2.45
			c-0.904,0.342-1.664,0.984-2.15,1.82C19.577,3.292,19.467,4.597,19.908,5.767"/>
		<g transform="translate(0 34.318)">
			<defs>
				<filter id="Adobe_OpacityMaskFilter_1_" filterUnits="userSpaceOnUse" x="-0.001" y="0.602" width="12.476" height="8.355">
					<feColorMatrix  type="matrix" values="1 0 0 0 0  0 1 0 0 0  0 0 1 0 0  0 0 0 1 0"/>
				</filter>
			</defs>
			<mask maskUnits="userSpaceOnUse" x="-0.001" y="0.602" width="12.476" height="8.355" id="d">
				<g filter="url(#Adobe_OpacityMaskFilter_1_)">
					<path id="c" fill="#FFFFFF" d="M0,0.602h12.475v8.355H0V0.602z"/>
				</g>
			</mask>
			<path mask="url(#d)" fill="#FFFFFF" d="M4.849,8.907c0.487-0.076,1.42-0.431,1.757-0.699C7.98,7.176,9.235,4.87,12.475,3.491
				c-3.385-0.508-5.54-2.336-7.07-2.725c-0.443-0.171-1.362-0.2-1.85-0.124C1.263,0.998-0.307,3.136,0.05,5.418
				C0.201,6.378,0.682,7.256,1.41,7.9C2.349,8.732,3.61,9.101,4.849,8.907"/>
		</g>
	</g>
	<g>
		<path fill="#FFFFFF" d="M69.014,42.17c0.725-0.638,1.203-1.51,1.35-2.464c0.356-2.265-1.204-4.389-3.486-4.743
			c-0.482-0.074-1.395-0.047-1.837,0.124c-1.521,0.385-3.665,2.2-7.032,2.706c3.224,1.37,4.473,3.66,5.838,4.682
			c0.335,0.27,1.262,0.619,1.745,0.695C66.825,43.362,68.079,42.996,69.014,42.17"/>
		<path fill="#FFFFFF" d="M36.82,48.611c-0.538-0.441-1.213-0.684-1.91-0.682c-1.654-0.005-2.999,1.332-3.004,2.986l0,0
			c0,0.35,0.122,0.99,0.292,1.284c0.443,1.032,1.978,2.345,2.712,4.665c0.622-2.428,2.12-3.561,2.7-4.639
			c0.154-0.268,0.304-0.961,0.304-1.311C37.914,49.988,37.488,49.159,36.82,48.611 M26.529,46.511
			c-0.124-0.683-0.483-1.301-1.015-1.747c-1.268-1.064-3.157-0.909-4.233,0.35c-0.228,0.267-0.552,0.834-0.614,1.167
			c-0.332,1.073-0.015,3.06-0.962,5.302c2.052-1.452,3.934-1.355,5.075-1.805c0.292-0.105,0.857-0.538,1.084-0.805
			C26.444,48.294,26.688,47.391,26.529,46.511 M43.693,48.973c0.226,0.266,0.792,0.7,1.084,0.803
			c1.143,0.451,3.025,0.354,5.077,1.808c-0.95-2.242-0.631-4.229-0.964-5.302c-0.06-0.334-0.386-0.902-0.612-1.168
			c-1.082-1.268-2.985-1.417-4.252-0.336c-0.072,0.063-0.142,0.127-0.208,0.195C42.752,46.074,42.698,47.807,43.693,48.973
			 M21.645,22.633c-0.309-0.168-0.993-0.371-1.302-0.364c-1.23-0.013-2.95,0.747-5.39,0.124c1.693,1.755,2.114,3.723,2.812,4.605
			c0.177,0.29,0.684,0.703,0.994,0.871c1.459,0.797,3.288,0.261,4.085-1.198c0.046-0.084,0.088-0.171,0.126-0.26
			C23.568,24.999,22.994,23.363,21.645,22.633 M47.113,24.693c-0.131,0.681-0.018,1.387,0.318,1.993
			c0.803,1.448,2.624,1.977,4.078,1.184c0.308-0.169,0.814-0.583,0.993-0.872c0.696-0.882,1.118-2.85,2.812-4.605
			c-2.441,0.623-4.162-0.137-5.39-0.124c-0.31-0.007-0.995,0.196-1.304,0.364C47.834,23.059,47.281,23.815,47.113,24.693
			 M43.582,18.865c0.123-0.328,0.229-1.03,0.175-1.334c-0.16-1.21-1.165-2.794-0.893-5.284c-1.505,1.919-3.404,2.615-4.184,3.427
			c-0.263,0.215-0.602,0.774-0.725,1.102c-0.578,1.541,0.203,3.259,1.745,3.836c0.102,0.038,0.206,0.071,0.312,0.098
			c0.589,0.153,1.192,0.12,1.737-0.067C42.594,20.354,43.268,19.702,43.582,18.865 M27.906,20.643
			c0.659,0.226,1.376,0.217,2.03-0.026c1.545-0.569,2.336-2.283,1.768-3.828c-0.002-0.005-0.004-0.01-0.005-0.015
			c-0.122-0.327-0.463-0.887-0.724-1.102c-0.78-0.813-2.68-1.509-4.184-3.426c0.27,2.49-0.733,4.074-0.896,5.284
			c-0.05,0.303,0.054,1.006,0.176,1.334C26.386,19.702,27.059,20.354,27.906,20.643 M21.052,38.404
			c0.302-0.506,0.447-1.09,0.417-1.678c-0.093-1.654-1.509-2.919-3.163-2.827c-0.101,0.005-0.201,0.016-0.301,0.032
			c-0.349,0.054-0.967,0.271-1.232,0.484c-0.958,0.596-2.026,2.304-4.22,3.382c2.51,0.237,3.867,1.534,5.028,1.937
			c0.29,0.113,1,0.15,1.349,0.098C19.815,39.697,20.594,39.174,21.052,38.404 M51.663,39.832c0.348,0.054,1.06,0.014,1.349-0.096
			c1.161-0.403,2.52-1.7,5.028-1.938c-2.194-1.078-3.263-2.787-4.22-3.382c-0.265-0.213-0.884-0.43-1.232-0.484
			c-1.638-0.257-3.174,0.863-3.431,2.5c-0.015,0.098-0.025,0.195-0.031,0.294c-0.033,0.604,0.12,1.185,0.415,1.678
			C50,39.173,50.778,39.696,51.663,39.832"/>
		<path fill="#FFFFFF" d="M85.058,66.882c-1.938,1.991-4.245,2.734-6.825,2.734c-2.65,0-4.824-0.946-6.52-2.634
			c-2.445-2.43-2.379-5.433-2.379-9.584c0-4.152-0.066-7.155,2.379-9.586c1.696-1.688,3.803-2.633,6.52-2.633
			c5.603,0,8.454,3.646,9.1,7.696h-4.755c-0.544-2.262-1.934-3.511-4.345-3.511c-1.291,0-2.344,0.506-3.022,1.283
			c-0.917,1.012-1.156,2.127-1.156,6.75s0.239,5.771,1.156,6.783c0.678,0.776,1.73,1.25,3.022,1.25c1.426,0,2.58-0.508,3.36-1.351
			c0.781-0.877,1.086-1.958,1.086-3.206v-0.912h-4.446v-3.916h9.133v3.512C87.366,63.034,86.756,65.127,85.058,66.882
			 M100.612,69.413h-3.53l-7.98-24.03h4.888l4.858,15.66l4.854-15.66h4.926L100.612,69.413z"/>
		<path fill="#FFFFFF" d="M126.729,69.413V58.917h-9.813v10.496h-3.666v-24.03h3.666v10.26h9.813v-10.26h3.668v24.03H126.729z
			 M144.764,57.128c-0.545-1.283-1.765-2.16-3.396-2.16c-1.629,0-2.888,0.877-3.431,2.16c-0.34,0.776-0.405,1.282-0.439,2.33h7.741
			C145.205,58.41,145.104,57.904,144.764,57.128z M137.498,61.854c0,2.937,1.563,4.791,4.381,4.791c1.934,0,2.952-0.539,4.176-1.754
			l2.207,2.059c-1.766,1.755-3.43,2.667-6.451,2.667c-4.313,0-7.744-2.261-7.744-8.776c0-5.533,2.888-8.74,7.302-8.74
			c4.618,0,7.3,3.375,7.3,8.234v1.52H137.498L137.498,61.854z M161.779,61.854h-4.043c-2.036,0-3.088,0.91-3.088,2.463
			c0,1.554,0.984,2.431,3.158,2.431c1.324,0,2.308-0.101,3.226-0.978c0.51-0.509,0.747-1.317,0.747-2.533V61.854z M161.848,69.413
			v-1.554c-1.258,1.25-2.445,1.756-4.584,1.756c-2.141,0-3.568-0.506-4.619-1.553c-0.884-0.912-1.358-2.228-1.358-3.68
			c0-2.867,2.003-4.926,5.942-4.926h4.551v-1.216c0-2.16-1.088-3.206-3.769-3.206c-1.903,0-2.817,0.438-3.77,1.652l-2.277-2.125
			c1.63-1.891,3.33-2.465,6.181-2.465c4.721,0,7.099,1.991,7.099,5.872v11.442L161.848,69.413L161.848,69.413z M174.516,69.413
			c-3.261,0-4.72-2.194-4.72-4.726V45.383h3.464v19.102c0,1.317,0.475,1.992,1.866,1.992h1.53v2.937H174.516L174.516,69.413z
			 M184.908,69.413c-3.227,0-4.719-2.295-4.719-4.759v-9.416h-1.972v-2.633h1.972v-5.197h3.463v5.197h3.328v2.633h-3.328v9.246
			c0,1.25,0.611,1.992,1.9,1.992h1.428v2.937H184.908L184.908,69.413z"/>
		<g transform="translate(190.52 44.902)">
			<defs>
				<filter id="Adobe_OpacityMaskFilter_2_" filterUnits="userSpaceOnUse" x="0.197" y="0.481" width="13.889" height="24.03">
					<feColorMatrix  type="matrix" values="1 0 0 0 0  0 1 0 0 0  0 0 1 0 0  0 0 0 1 0"/>
				</filter>
			</defs>
			<mask maskUnits="userSpaceOnUse" x="0.197" y="0.481" width="13.889" height="24.03" id="f">
				<g filter="url(#Adobe_OpacityMaskFilter_2_)">
					<path id="e" fill="#FFFFFF" d="M0.197,0.481h13.887v24.03H0.197V0.481z"/>
				</g>
			</mask>
			<path mask="url(#f)" fill="#FFFFFF" d="M10.623,24.511V14.015c0-2.599-1.529-3.746-3.465-3.746S3.66,11.45,3.66,14.015v10.496
				H0.197V0.481H3.66v8.641C4.849,7.84,6.41,7.198,8.108,7.198c3.837,0,5.978,2.564,5.978,6.277V24.51L10.623,24.511L10.623,24.511z
				"/>
		</g>
	</g>
</g>
</svg>
