<?xml version="1.0" encoding="utf-8"?>
<!-- Generator: Adobe Illustrator 16.0.0, SVG Export Plug-In . SVG Version: 6.00 Build 0)  -->
<!DOCTYPE svg PUBLIC "-//W3C//DTD SVG 1.1 Tiny//EN" "http://www.w3.org/Graphics/SVG/1.1/DTD/svg11-tiny.dtd">
<svg version="1.1" baseProfile="tiny" id="Layer_1" xmlns="http://www.w3.org/2000/svg" xmlns:xlink="http://www.w3.org/1999/xlink"
	 x="0px" y="0px" width="543.5px" height="165.167px" viewBox="0 0 543.5 165.167" xml:space="preserve">
<g>
	<path fill="#FFFFFF" d="M28.362,64.101h-7.129V9.123H1.816V2.79h45.962v6.333H28.362V64.101z"/>
	<path fill="#FFFFFF" d="M102.866,64.101h-7.129V35.249H63.446v28.852h-7.129V2.79h7.129v26.084h32.291V2.79h7.129V64.101z"/>
	<path fill="#FFFFFF" d="M153.174,64.101h-34.178V2.79h34.178v6.333h-27.049v19.752h25.413v6.291h-25.413v22.562h27.049V64.101z"/>
	<path fill="#FFFFFF" d="M214.83,64.101l-20.8-54.35h-0.335c0.391,4.306,0.587,9.422,0.587,15.349v39.001h-6.584V2.79h10.736
		l19.417,50.575h0.335L237.77,2.79h10.652v61.311h-7.129V24.597c0-4.529,0.195-9.45,0.587-14.762h-0.335l-20.968,54.266H214.83z"/>
	<path fill="#FFFFFF" d="M317.768,33.362c0,9.813-2.48,17.529-7.443,23.149c-4.963,5.619-11.861,8.429-20.695,8.429
		c-9.031,0-15.999-2.761-20.905-8.283c-4.907-5.521-7.36-13.314-7.36-23.379c0-9.981,2.459-17.718,7.381-23.212
		c4.92-5.494,11.91-8.24,20.968-8.24c8.807,0,15.684,2.796,20.633,8.387C315.294,15.805,317.768,23.521,317.768,33.362z
		 M268.912,33.362c0,8.303,1.768,14.601,5.305,18.892c3.536,4.292,8.673,6.438,15.412,6.438c6.793,0,11.924-2.139,15.391-6.417
		c3.467-4.277,5.2-10.582,5.2-18.913c0-8.247-1.728-14.503-5.179-18.767c-3.453-4.263-8.563-6.396-15.328-6.396
		c-6.794,0-11.959,2.146-15.496,6.438C270.68,18.929,268.912,25.17,268.912,33.362z"/>
	<path fill="#FFFFFF" d="M378.643,64.101h-8.135L337,12.645h-0.335c0.446,6.039,0.671,11.575,0.671,16.607v34.849h-6.584V2.79h8.052
		l33.423,51.246h0.336c-0.057-0.755-0.182-3.18-0.377-7.276c-0.196-4.095-0.267-7.024-0.21-8.786V2.79h6.667V64.101z"/>
	<path fill="#FFFFFF" d="M433.354,64.101l-7.632-19.5h-24.575l-7.549,19.5h-7.213l24.239-61.563h5.997l24.113,61.563H433.354z
		 M423.5,38.185l-7.13-18.998c-0.923-2.404-1.873-5.353-2.852-8.848c-0.615,2.684-1.496,5.634-2.642,8.848l-7.213,18.998H423.5z"/>
	<path fill="#FFFFFF" d="M483.074,47.788c0,5.396-1.957,9.604-5.871,12.623s-9.226,4.529-15.936,4.529
		c-7.27,0-12.861-0.937-16.774-2.81v-6.877c2.517,1.063,5.256,1.901,8.22,2.516c2.963,0.615,5.898,0.923,8.807,0.923
		c4.752,0,8.33-0.902,10.735-2.705c2.404-1.803,3.606-4.312,3.606-7.527c0-2.125-0.426-3.865-1.279-5.221
		c-0.853-1.356-2.278-2.606-4.277-3.753c-1.999-1.146-5.039-2.446-9.121-3.9c-5.703-2.041-9.778-4.459-12.225-7.255
		c-2.446-2.795-3.669-6.443-3.669-10.945c0-4.724,1.774-8.485,5.325-11.281c3.551-2.795,8.248-4.193,14.092-4.193
		c6.094,0,11.699,1.118,16.816,3.354l-2.223,6.207c-5.061-2.124-9.981-3.187-14.762-3.187c-3.774,0-6.725,0.811-8.85,2.433
		s-3.187,3.873-3.187,6.751c0,2.125,0.392,3.865,1.175,5.221c0.781,1.356,2.104,2.6,3.963,3.732
		c1.858,1.132,4.703,2.384,8.533,3.753c6.43,2.293,10.854,4.753,13.273,7.381C481.865,40.184,483.074,43.594,483.074,47.788z"/>
	<path fill="#FFFFFF" d="M541.477,64.101h-7.129V35.249h-32.291v28.852h-7.13V2.79h7.13v26.084h32.291V2.79h7.129V64.101z"/>
	<path fill="#FFFFFF" d="M38.259,108.097c-6.738,0-12.057,2.244-15.957,6.731s-5.85,10.631-5.85,18.431
		c0,8.024,1.88,14.224,5.641,18.599c3.76,4.375,9.121,6.563,16.083,6.563c4.277,0,9.156-0.769,14.636-2.307v6.249
		c-4.25,1.594-9.492,2.391-15.726,2.391c-9.031,0-15.999-2.74-20.905-8.22c-4.907-5.479-7.36-13.266-7.36-23.358
		c0-6.318,1.181-11.854,3.543-16.607c2.362-4.752,5.773-8.415,10.232-10.987c4.459-2.572,9.708-3.858,15.747-3.858
		c6.43,0,12.05,1.174,16.858,3.522l-3.019,6.123C47.541,109.187,42.899,108.097,38.259,108.097z"/>
	<path fill="#FFFFFF" d="M118.719,133.175c0,9.813-2.481,17.529-7.444,23.149c-4.963,5.619-11.861,8.429-20.695,8.429
		c-9.031,0-15.999-2.761-20.905-8.283c-4.907-5.521-7.36-13.314-7.36-23.379c0-9.981,2.459-17.718,7.381-23.212
		c4.92-5.494,11.91-8.24,20.968-8.24c8.807,0,15.685,2.796,20.633,8.387C116.245,115.618,118.719,123.334,118.719,133.175z
		 M69.863,133.175c0,8.303,1.768,14.601,5.305,18.892c3.536,4.292,8.673,6.438,15.412,6.438c6.793,0,11.923-2.139,15.391-6.417
		c3.466-4.277,5.2-10.582,5.2-18.913c0-8.247-1.727-14.503-5.179-18.767c-3.453-4.263-8.563-6.396-15.328-6.396
		c-6.793,0-11.959,2.146-15.495,6.438C71.631,118.742,69.863,124.983,69.863,133.175z"/>
	<path fill="#FFFFFF" d="M158.836,163.914l-20.8-54.35H137.7c0.391,4.306,0.587,9.422,0.587,15.349v39.001h-6.584v-61.311h10.736
		l19.417,50.575h0.335l19.584-50.575h10.652v61.311h-7.129V124.41c0-4.529,0.195-9.45,0.587-14.762h-0.335l-20.968,54.266H158.836z"
		/>
	<path fill="#FFFFFF" d="M235.689,163.914l-20.8-54.35h-0.335c0.391,4.306,0.587,9.422,0.587,15.349v39.001h-6.584v-61.311h10.736
		l19.417,50.575h0.335l19.584-50.575h10.652v61.311h-7.129V124.41c0-4.529,0.195-9.45,0.587-14.762h-0.335l-20.968,54.266H235.689z"
		/>
	<path fill="#FFFFFF" d="M285.41,163.914v-61.311h7.129v61.311H285.41z"/>
	<path fill="#FFFFFF" d="M343.266,147.601c0,5.396-1.957,9.604-5.871,12.623s-9.227,4.529-15.936,4.529
		c-7.27,0-12.861-0.937-16.775-2.81v-6.877c2.517,1.063,5.256,1.901,8.22,2.516c2.964,0.615,5.899,0.923,8.807,0.923
		c4.753,0,8.331-0.902,10.735-2.705s3.607-4.312,3.607-7.527c0-2.125-0.427-3.865-1.279-5.221c-0.854-1.356-2.279-2.606-4.277-3.753
		c-2-1.146-5.04-2.446-9.121-3.9c-5.703-2.041-9.779-4.459-12.225-7.255c-2.447-2.795-3.67-6.443-3.67-10.945
		c0-4.724,1.775-8.485,5.326-11.281c3.551-2.795,8.247-4.193,14.091-4.193c6.095,0,11.7,1.118,16.816,3.354l-2.223,6.207
		c-5.061-2.124-9.981-3.187-14.762-3.187c-3.774,0-6.724,0.811-8.849,2.433s-3.188,3.873-3.188,6.751
		c0,2.125,0.392,3.865,1.175,5.221c0.782,1.356,2.104,2.6,3.963,3.732c1.858,1.132,4.704,2.384,8.534,3.753
		c6.43,2.293,10.854,4.753,13.273,7.381C342.056,139.997,343.266,143.407,343.266,147.601z"/>
	<path fill="#FFFFFF" d="M389.715,147.601c0,5.396-1.957,9.604-5.871,12.623s-9.226,4.529-15.936,4.529
		c-7.27,0-12.861-0.937-16.774-2.81v-6.877c2.517,1.063,5.256,1.901,8.22,2.516c2.963,0.615,5.898,0.923,8.807,0.923
		c4.752,0,8.33-0.902,10.735-2.705c2.404-1.803,3.606-4.312,3.606-7.527c0-2.125-0.426-3.865-1.279-5.221
		c-0.853-1.356-2.278-2.606-4.277-3.753c-1.999-1.146-5.039-2.446-9.121-3.9c-5.703-2.041-9.778-4.459-12.225-7.255
		c-2.446-2.795-3.669-6.443-3.669-10.945c0-4.724,1.774-8.485,5.325-11.281c3.551-2.795,8.248-4.193,14.092-4.193
		c6.094,0,11.699,1.118,16.816,3.354l-2.223,6.207c-5.061-2.124-9.981-3.187-14.762-3.187c-3.774,0-6.725,0.811-8.85,2.433
		s-3.187,3.873-3.187,6.751c0,2.125,0.392,3.865,1.175,5.221c0.781,1.356,2.104,2.6,3.963,3.732
		c1.858,1.132,4.703,2.384,8.533,3.753c6.43,2.293,10.854,4.753,13.273,7.381C388.506,139.997,389.715,143.407,389.715,147.601z"/>
	<path fill="#FFFFFF" d="M401.566,163.914v-61.311h7.13v61.311H401.566z"/>
	<path fill="#FFFFFF" d="M478.043,133.175c0,9.813-2.481,17.529-7.443,23.149c-4.963,5.619-11.861,8.429-20.695,8.429
		c-9.031,0-16-2.761-20.906-8.283c-4.906-5.521-7.359-13.314-7.359-23.379c0-9.981,2.459-17.718,7.381-23.212
		c4.92-5.494,11.91-8.24,20.968-8.24c8.807,0,15.685,2.796,20.633,8.387C475.568,115.618,478.043,123.334,478.043,133.175z
		 M429.188,133.175c0,8.303,1.768,14.601,5.305,18.892c3.536,4.292,8.674,6.438,15.412,6.438c6.793,0,11.923-2.139,15.391-6.417
		c3.466-4.277,5.199-10.582,5.199-18.913c0-8.247-1.727-14.503-5.179-18.767c-3.453-4.263-8.563-6.396-15.328-6.396
		c-6.794,0-11.959,2.146-15.495,6.438C430.955,118.742,429.188,124.983,429.188,133.175z"/>
	<path fill="#FFFFFF" d="M538.918,163.914h-8.135l-33.508-51.456h-0.336c0.447,6.039,0.672,11.575,0.672,16.607v34.849h-6.584
		v-61.311h8.051l33.424,51.246h0.336c-0.057-0.755-0.183-3.18-0.378-7.276c-0.196-4.095-0.267-7.024-0.21-8.786v-35.185h6.668
		V163.914z"/>
</g>
</svg>
